{"canvas_config":{"height":1920,"ratio":"9:16","width":1080},"color_space":0,"config":{"adjust_max_index":1,"attachment_info":[],"combination_max_index":1,"export_range":null,"extract_audio_last_index":1,"lyrics_recognition_id":"","lyrics_sync":true,"lyrics_taskinfo":[],"maintrack_adsorb":true,"material_save_mode":0,"original_sound_last_index":1,"record_audio_last_index":1,"sticker_max_index":1,"subtitle_recognition_id":"","subtitle_sync":true,"subtitle_taskinfo":[],"video_mute":false,"zoom_info_params":null},"cover":null,"create_time":0,"duration":76500000,"extra_info":null,"fps":30,"group_container":null,"id":"189741FD-9F5D-47d4-8F2B-ABC1A1CF0125","keyframes":{"adjusts":[],"audios":[],"filters":[],"handwrites":[],"stickers":[],"texts":[],"videos":[]},"last_modified_platform":{"app_id":3704,"app_version":"3.4.0","os":"windows","os_version":"10.0.18363"},"materials":{"audio_balances":[],"audio_effects":[],"audio_fades":[{"fade_in_duration":0,"fade_out_duration":1066666,"fade_type":0,"id":"11AD4A63-7624-46e3-B219-84860E4EB521","type":"audio_fade"}],"audios":[],"beats":[],"canvases":[{"album_image":"","blur":0,"color":"","id":"59F689F1-664A-47e2-9346-FD467960E3EB","image":"","image_id":"","image_name":"","type":"canvas_color"},{"album_image":"","blur":0,"color":"","id":"B8B59CBC-C199-4be2-A803-09FAC09529B2","image":"","image_id":"","image_name":"","type":"canvas_color"},{"album_image":"","blur":0,"color":"","id":"4E39D704-54FD-41c2-B2DB-716570DD1AFF","image":"","image_id":"","image_name":"","type":"canvas_color"},{"album_image":"","blur":0,"color":"","id":"177457E9-3463-40d9-AE60-B76D83C3F563","image":"","image_id":"","image_name":"","type":"canvas_color"},{"album_image":"","blur":0,"color":"","id":"6F7942BD-FAB1-45c7-B4E8-1A4F5C2B2772","image":"","image_id":"","image_name":"","type":"canvas_color"},{"album_image":"","blur":0,"color":"","id":"E5700591-1E62-40ef-82E0-3E413C6904B1","image":"","image_id":"","image_name":"","type":"canvas_color"},{"album_image":"","blur":0,"color":"","id":"974B0BCF-FDB8-4fe0-9F63-5292B678073F","image":"","image_id":"","image_name":"","type":"canvas_color"},{"album_image":"","blur":0,"color":"","id":"64A314DF-DA49-4bbf-9FB8-718954FDCAF0","image":"","image_id":"","image_name":"","type":"canvas_color"},{"album_image":"","blur":0,"color":"","id":"BAD1D2D6-F050-4c09-9D21-3ED989B35861","image":"","image_id":"","image_name":"","type":"canvas_color"},{"album_image":"","blur":0,"color":"","id":"7EA1CB20-F655-4da4-B983-C977281CA055","image":"","image_id":"","image_name":"","type":"canvas_color"},{"album_image":"","blur":0,"color":"","id":"081407DD-164E-47e1-A6C3-4F00AAABF8CC","image":"","image_id":"","image_name":"","type":"canvas_color"},{"album_image":"","blur":0,"color":"","id":"F31E44ED-392C-4a08-966C-E34EB2F8178C","image":"","image_id":"","image_name":"","type":"canvas_color"}],"chromas":[],"color_curves":[],"drafts":[],"effects":[{"adjust_params":[],"algorithm_artifact_path":"","apply_target_type":0,"category_id":"3341","category_name":"out","effect_id":"624707","enable_skin_tone_correction":false,"formula_id":"","id":"461D5B9F-8D54-44c8-ACD8-732CBAF677FF","intensity_key":"","name":"渐隐","path":"C:/Users/yl/AppData/Local/JianyingPro/User Data/Cache/effect/624707/a38d418dd5ac1bb821802275600a0e70","platform":"all","resource_id":"6798320902548230669","source_platform":0,"sub_type":"none","time_range":null,"type":"video_animation","value":500000,"version":""},{"adjust_params":[],"algorithm_artifact_path":"","apply_target_type":0,"category_id":"3340","category_name":"in","effect_id":"624751","enable_skin_tone_correction":false,"formula_id":"","id":"6D4AC154-0827-41e8-AF53-CA665661534E","intensity_key":"","name":"放大","path":"C:/Users/yl/AppData/Local/JianyingPro/User Data/Cache/effect/624751/49c0ee8a614ca380e2d067916f88d95c","platform":"all","resource_id":"6798332733694153230","source_platform":0,"sub_type":"none","time_range":null,"type":"video_animation","value":500000,"version":""},{"adjust_params":[],"algorithm_artifact_path":"","apply_target_type":0,"category_id":"3340","category_name":"in","effect_id":"624751","enable_skin_tone_correction":false,"formula_id":"","id":"7F75671A-4579-4183-B1CC-299E89CFF5C7","intensity_key":"","name":"放大","path":"C:/Users/yl/AppData/Local/JianyingPro/User Data/Cache/effect/624751/49c0ee8a614ca380e2d067916f88d95c","platform":"all","resource_id":"6798332733694153230","source_platform":0,"sub_type":"none","time_range":null,"type":"video_animation","value":500000,"version":""},{"adjust_params":[],"algorithm_artifact_path":"","apply_target_type":0,"category_id":"3340","category_name":"in","effect_id":"624751","enable_skin_tone_correction":false,"formula_id":"","id":"3B9F726D-6303-435b-902D-4914E4D5A1B4","intensity_key":"","name":"放大","path":"C:/Users/yl/AppData/Local/JianyingPro/User Data/Cache/effect/624751/49c0ee8a614ca380e2d067916f88d95c","platform":"all","resource_id":"6798332733694153230","source_platform":0,"sub_type":"none","time_range":null,"type":"video_animation","value":500000,"version":""},{"adjust_params":[],"algorithm_artifact_path":"","apply_target_type":0,"category_id":"3340","category_name":"in","effect_id":"624751","enable_skin_tone_correction":false,"formula_id":"","id":"1AA233C2-FB1E-47b6-8B3B-5F11EEE321D2","intensity_key":"","name":"放大","path":"C:/Users/yl/AppData/Local/JianyingPro/User Data/Cache/effect/624751/49c0ee8a614ca380e2d067916f88d95c","platform":"all","resource_id":"6798332733694153230","source_platform":0,"sub_type":"none","time_range":null,"type":"video_animation","value":500000,"version":""},{"adjust_params":[],"algorithm_artifact_path":"","apply_target_type":0,"category_id":"3340","category_name":"in","effect_id":"624751","enable_skin_tone_correction":false,"formula_id":"","id":"D6E81451-1485-45cd-9F2E-5F552AB1A26F","intensity_key":"","name":"放大","path":"C:/Users/yl/AppData/Local/JianyingPro/User Data/Cache/effect/624751/49c0ee8a614ca380e2d067916f88d95c","platform":"all","resource_id":"6798332733694153230","source_platform":0,"sub_type":"none","time_range":null,"type":"video_animation","value":500000,"version":""},{"adjust_params":[],"algorithm_artifact_path":"","apply_target_type":0,"category_id":"3340","category_name":"in","effect_id":"624751","enable_skin_tone_correction":false,"formula_id":"","id":"88A21890-325A-464f-AB31-69D858B55047","intensity_key":"","name":"放大","path":"C:/Users/yl/AppData/Local/JianyingPro/User Data/Cache/effect/624751/49c0ee8a614ca380e2d067916f88d95c","platform":"all","resource_id":"6798332733694153230","source_platform":0,"sub_type":"none","time_range":null,"type":"video_animation","value":500000,"version":""},{"adjust_params":[],"algorithm_artifact_path":"","apply_target_type":0,"category_id":"3340","category_name":"in","effect_id":"624751","enable_skin_tone_correction":false,"formula_id":"","id":"9CA5A86D-D65F-4887-A639-018AC9870747","intensity_key":"","name":"放大","path":"C:/Users/yl/AppData/Local/JianyingPro/User Data/Cache/effect/624751/49c0ee8a614ca380e2d067916f88d95c","platform":"all","resource_id":"6798332733694153230","source_platform":0,"sub_type":"none","time_range":null,"type":"video_animation","value":500000,"version":""},{"adjust_params":[],"algorithm_artifact_path":"","apply_target_type":0,"category_id":"3340","category_name":"in","effect_id":"624751","enable_skin_tone_correction":false,"formula_id":"","id":"E4423D4B-40CF-4a20-8AA7-A6291E856686","intensity_key":"","name":"放大","path":"C:/Users/yl/AppData/Local/JianyingPro/User Data/Cache/effect/624751/49c0ee8a614ca380e2d067916f88d95c","platform":"all","resource_id":"6798332733694153230","source_platform":0,"sub_type":"none","time_range":null,"type":"video_animation","value":500000,"version":""},{"adjust_params":[],"algorithm_artifact_path":"","apply_target_type":0,"category_id":"3340","category_name":"in","effect_id":"624751","enable_skin_tone_correction":false,"formula_id":"","id":"87E686B6-19B3-4d69-AC23-73B4E7985D8C","intensity_key":"","name":"放大","path":"C:/Users/yl/AppData/Local/JianyingPro/User Data/Cache/effect/624751/49c0ee8a614ca380e2d067916f88d95c","platform":"all","resource_id":"6798332733694153230","source_platform":0,"sub_type":"none","time_range":null,"type":"video_animation","value":500000,"version":""}],"handwrites":[],"hsl":[],"images":[],"log_color_wheels":[],"manual_deformations":[],"masks":[{"config":{"aspectRatio":1,"centerX":0,"centerY":0.12852664576802508,"feather":0,"height":0.5,"invert":false,"rotation":0,"roundCorner":0,"width":0.5},"id":"8F49325D-914D-4dff-A860-CC09CA242696","name":"镜面","path":"C:/Users/yl/AppData/Local/JianyingPro/User Data/Cache/effect/636073/961f342be08aa3f70fd8178a51eb2506","platform":"all","resource_id":"6791699060140020232","resource_type":"mirror","type":"mask"},{"config":{"aspectRatio":1,"centerX":0.02507859452390975,"centerY":-0.054137918337328894,"feather":0,"height":0.5351779823841436,"invert":false,"rotation":0,"roundCorner":0,"width":0.5},"id":"193AB712-006A-46fb-A99F-43236DA0D64F","name":"镜面","path":"C:/Users/yl/AppData/Local/JianyingPro/User Data/Cache/effect/636073/961f342be08aa3f70fd8178a51eb2506","platform":"all","resource_id":"6791699060140020232","resource_type":"mirror","type":"mask"},{"config":{"aspectRatio":1,"centerX":0.02821316614420063,"centerY":0.12225705329153605,"feather":0,"height":0.5,"invert":false,"rotation":0,"roundCorner":0,"width":0.5},"id":"ACACD66B-7C85-48d2-9317-D66557B4BCC3","name":"镜面","path":"C:/Users/yl/AppData/Local/JianyingPro/User Data/Cache/effect/636073/961f342be08aa3f70fd8178a51eb2506","platform":"all","resource_id":"6791699060140020232","resource_type":"mirror","type":"mask"}],"material_animations":[{"animations":[{"duration":500000,"id":"1644272","name":"向上擦除","path":"C:/Users/yl/AppData/Local/JianyingPro/User Data/Cache/effect/1644272/ee74a3a8afb2167f4403dee957338afe","platform":"all","resource_id":"6774625910067827212","type":"in"}],"id":"8D148C0B-381D-4762-9857-F224013B8029","type":"sticker_animation"},{"animations":[{"duration":500000,"id":"1644272","name":"向上擦除","path":"C:/Users/yl/AppData/Local/JianyingPro/User Data/Cache/effect/1644272/ee74a3a8afb2167f4403dee957338afe","platform":"all","resource_id":"6774625910067827212","type":"in"}],"id":"2569AD3F-985F-47b3-9A86-BFDE14988260","type":"sticker_animation"},{"animations":[{"duration":500000,"id":"1644272","name":"向上擦除","path":"C:/Users/yl/AppData/Local/JianyingPro/User Data/Cache/effect/1644272/ee74a3a8afb2167f4403dee957338afe","platform":"all","resource_id":"6774625910067827212","type":"in"}],"id":"0BA39B58-8D14-4259-8DC6-AC26A4FD4AFB","type":"sticker_animation"},{"animations":[{"duration":500000,"id":"1644272","name":"向上擦除","path":"C:/Users/yl/AppData/Local/JianyingPro/User Data/Cache/effect/1644272/ee74a3a8afb2167f4403dee957338afe","platform":"all","resource_id":"6774625910067827212","type":"in"}],"id":"18A47315-DB61-434a-93D4-0BA8899BDCFB","type":"sticker_animation"},{"animations":[{"duration":500000,"id":"1644272","name":"向上擦除","path":"C:/Users/yl/AppData/Local/JianyingPro/User Data/Cache/effect/1644272/ee74a3a8afb2167f4403dee957338afe","platform":"all","resource_id":"6774625910067827212","type":"in"}],"id":"827DF116-7123-43f9-8686-07D98B9477F1","type":"sticker_animation"},{"animations":[{"duration":500000,"id":"1644272","name":"向上擦除","path":"C:/Users/yl/AppData/Local/JianyingPro/User Data/Cache/effect/1644272/ee74a3a8afb2167f4403dee957338afe","platform":"all","resource_id":"6774625910067827212","type":"in"}],"id":"934ECA33-42EB-4d7b-ADC5-AEB3E3897503","type":"sticker_animation"},{"animations":[{"duration":500000,"id":"1644272","name":"向上擦除","path":"C:/Users/yl/AppData/Local/JianyingPro/User Data/Cache/effect/1644272/ee74a3a8afb2167f4403dee957338afe","platform":"all","resource_id":"6774625910067827212","type":"in"}],"id":"4D3CEBA3-8462-428d-B33A-5BDA4A0DEDE7","type":"sticker_animation"},{"animations":[{"duration":500000,"id":"1644272","name":"向上擦除","path":"C:/Users/yl/AppData/Local/JianyingPro/User Data/Cache/effect/1644272/ee74a3a8afb2167f4403dee957338afe","platform":"all","resource_id":"6774625910067827212","type":"in"}],"id":"574A6F2E-EA41-4586-BFDA-BB8B5A53271C","type":"sticker_animation"},{"animations":[{"duration":500000,"id":"1644272","name":"向上擦除","path":"C:/Users/yl/AppData/Local/JianyingPro/User Data/Cache/effect/1644272/ee74a3a8afb2167f4403dee957338afe","platform":"all","resource_id":"6774625910067827212","type":"in"}],"id":"2328FC27-E95C-4f75-ACD7-26F439C3E806","type":"sticker_animation"}],"placeholders":[],"plugin_effects":[],"primary_color_wheels":[],"realtime_denoises":[],"speeds":[{"curve_speed":null,"id":"5AD89AD5-D78D-4fc9-AE73-A816DA4E0B3E","mode":0,"speed":1,"type":"speed"},{"curve_speed":null,"id":"CF08F603-DDE8-435b-BB46-C0E838088AAB","mode":0,"speed":1,"type":"speed"},{"curve_speed":null,"id":"323314A5-ED31-4f60-995B-3FE5BDE14C54","mode":0,"speed":1,"type":"speed"},{"curve_speed":null,"id":"16DEEA85-4CC9-49c6-AE70-97B3A127027F","mode":0,"speed":1,"type":"speed"},{"curve_speed":null,"id":"A7BE3C3C-EAA2-410a-9CDC-63DF0DEE1F6A","mode":0,"speed":1,"type":"speed"},{"curve_speed":null,"id":"C8E5769D-7623-41df-AFBB-AA4D8E6BBDA8","mode":0,"speed":1,"type":"speed"},{"curve_speed":null,"id":"10473639-5234-4bba-A5CC-DB883311BD73","mode":0,"speed":1,"type":"speed"},{"curve_speed":null,"id":"B7296D94-5D47-446e-B94A-C5386DAB618C","mode":0,"speed":1,"type":"speed"},{"curve_speed":null,"id":"739A7A76-9A63-4737-B8A8-618F282E708B","mode":0,"speed":1,"type":"speed"},{"curve_speed":null,"id":"59384766-D4EE-47c1-B56E-628F8AA6B379","mode":0,"speed":1,"type":"speed"},{"curve_speed":null,"id":"85408179-009F-498f-8529-778490CA5BEF","mode":0,"speed":1,"type":"speed"},{"curve_speed":null,"id":"A0EA0823-DD07-4ebd-AEF4-D58D004EEFE8","mode":0,"speed":1,"type":"speed"}],"stickers":[],"tail_leaders":[],"text_templates":[],"texts":[{"add_type":0,"alignment":0,"background_alpha":1,"background_color":"","background_height":1,"background_horizontal_offset":0,"background_round_radius":0,"background_vertical_offset":0,"background_width":1,"bold_width":0,"border_color":"#000000","border_width":0.08,"check_flag":15,"content":"<outline color=(0,0,0,1) width=0.08><size=13><color=(1,0.87059,0,1)><font id=\"6740435892441190919\" path=\"D:/software/Tools/JianyingPro/3.4.0.9107/Resources/Font/新青年体.ttf\">[\n XIAOHU \n 奏接特卡 \n]</font></color></size></outline>","font_category_id":"","font_category_name":"","font_id":"","font_name":"","font_path":"D:/software/Tools/JianyingPro/3.4.0.9107/Resources/Font/新青年体.ttf","font_resource_id":"6740435892441190919","font_size":13,"font_title":"none","font_url":"","fonts":[{"category_id":"","category_name":"","effect_id":"6740435892441190919","id":"D381B165-3259-42fe-9FB9-3344B1AF9AE9","path":"D:/software/Tools/JianyingPro/3.4.0.9107/Resources/Font/新青年体.ttf","resource_id":"6740435892441190919","title":"新青年体"}],"global_alpha":1,"has_shadow":false,"id":"FF86BCC2-6443-438c-BD99-245602707A5A","initial_scale":1,"is_rich_text":false,"italic_degree":0,"ktv_color":"","layer_weight":1,"letter_spacing":0,"line_spacing":0.16999999999999998,"recognize_type":0,"shadow_alpha":0,"shadow_angle":-45,"shadow_color":"#000000","shadow_distance":8,"shadow_point":{"x":1.0182337649086284,"y":-1.0182337649086284},"shadow_smoothing":0.99,"shape_clip_x":false,"shape_clip_y":false,"style_name":"黄字黑边","sub_type":0,"text_alpha":1,"text_color":"#ffde00","text_size":30,"text_to_audio_ids":[],"type":"text","typesetting":0,"underline":false,"underline_offset":0.22,"underline_width":0.05,"use_effect_default_color":false},{"add_type":0,"alignment":0,"background_alpha":1,"background_color":"","background_height":1,"background_horizontal_offset":0,"background_round_radius":0,"background_vertical_offset":0,"background_width":1,"bold_width":0,"border_color":"#000000","border_width":0.08,"check_flag":15,"content":"<outline color=(0,0,0,1) width=0.08><size=13><color=(1,0.87059,0,1)><font id=\"6740435892441190919\" path=\"D:/software/Tools/JianyingPro/3.4.0.9107/Resources/Font/新青年体.ttf\">[\n ROOKIE\n 单人卡\n 1/1编\n]</font></color></size></outline>","font_category_id":"","font_category_name":"","font_id":"","font_name":"","font_path":"D:/software/Tools/JianyingPro/3.4.0.9107/Resources/Font/新青年体.ttf","font_resource_id":"6740435892441190919","font_size":13,"font_title":"none","font_url":"","fonts":[{"category_id":"","category_name":"","effect_id":"6740435892441190919","id":"B660B383-307B-46da-91AB-AFDCBB2498F8","path":"D:/software/Tools/JianyingPro/3.4.0.9107/Resources/Font/新青年体.ttf","resource_id":"6740435892441190919","title":"新青年体"}],"global_alpha":1,"has_shadow":false,"id":"4DA12513-84A9-472c-9C05-465EA67D11AA","initial_scale":1,"is_rich_text":false,"italic_degree":0,"ktv_color":"","layer_weight":1,"letter_spacing":0,"line_spacing":0.16999999999999998,"recognize_type":0,"shadow_alpha":0,"shadow_angle":-45,"shadow_color":"#000000","shadow_distance":8,"shadow_point":{"x":1.0182337649086284,"y":-1.0182337649086284},"shadow_smoothing":0.99,"shape_clip_x":false,"shape_clip_y":false,"style_name":"黄字黑边","sub_type":0,"text_alpha":1,"text_color":"#ffde00","text_size":30,"text_to_audio_ids":[],"type":"text","typesetting":0,"underline":false,"underline_offset":0.22,"underline_width":0.05,"use_effect_default_color":false},{"add_type":0,"alignment":0,"background_alpha":1,"background_color":"","background_height":1,"background_horizontal_offset":0,"background_round_radius":0,"background_vertical_offset":0,"background_width":1,"bold_width":0,"border_color":"#000000","border_width":0.08,"check_flag":15,"content":"<outline color=(0,0,0,1) width=0.08><size=13><color=(1,0.87059,0,1)><font id=\"6740435892441190919\" path=\"D:/software/Tools/JianyingPro/3.4.0.9107/Resources/Font/新青年体.ttf\">[\n Knight & Karse\n 双人签字\n]</font></color></size></outline>","font_category_id":"","font_category_name":"","font_id":"","font_name":"","font_path":"D:/software/Tools/JianyingPro/3.4.0.9107/Resources/Font/新青年体.ttf","font_resource_id":"6740435892441190919","font_size":13,"font_title":"none","font_url":"","fonts":[{"category_id":"","category_name":"","effect_id":"6740435892441190919","id":"CB0963F1-1FBD-47a6-8586-9DCD94B36BCF","path":"D:/software/Tools/JianyingPro/3.4.0.9107/Resources/Font/新青年体.ttf","resource_id":"6740435892441190919","title":"新青年体"}],"global_alpha":1,"has_shadow":false,"id":"320310E8-B127-437f-983B-681D77238FFF","initial_scale":1,"is_rich_text":false,"italic_degree":0,"ktv_color":"","layer_weight":1,"letter_spacing":0,"line_spacing":0.16999999999999998,"recognize_type":0,"shadow_alpha":0,"shadow_angle":-45,"shadow_color":"#000000","shadow_distance":8,"shadow_point":{"x":1.0182337649086284,"y":-1.0182337649086284},"shadow_smoothing":0.99,"shape_clip_x":false,"shape_clip_y":false,"style_name":"黄字黑边","sub_type":0,"text_alpha":1,"text_color":"#ffde00","text_size":30,"text_to_audio_ids":[],"type":"text","typesetting":0,"underline":false,"underline_offset":0.22,"underline_width":0.05,"use_effect_default_color":false},{"add_type":0,"alignment":0,"background_alpha":1,"background_color":"","background_height":1,"background_horizontal_offset":0,"background_round_radius":0,"background_vertical_offset":0,"background_width":1,"bold_width":0,"border_color":"#000000","border_width":0.08,"check_flag":15,"content":"<outline color=(0,0,0,1) width=0.08><size=13><color=(1,0.87059,0,1)><font id=\"6740435892441190919\" path=\"D:/software/Tools/JianyingPro/3.4.0.9107/Resources/Font/新青年体.ttf\">[\n Viper\n 单人签字\n]</font></color></size></outline>","font_category_id":"","font_category_name":"","font_id":"","font_name":"","font_path":"D:/software/Tools/JianyingPro/3.4.0.9107/Resources/Font/新青年体.ttf","font_resource_id":"6740435892441190919","font_size":13,"font_title":"none","font_url":"","fonts":[{"category_id":"","category_name":"","effect_id":"6740435892441190919","id":"7FAFA0CA-846B-4040-8392-B2A73D9BD0AA","path":"D:/software/Tools/JianyingPro/3.4.0.9107/Resources/Font/新青年体.ttf","resource_id":"6740435892441190919","title":"新青年体"}],"global_alpha":1,"has_shadow":false,"id":"2FF11208-1D52-43c3-AE93-0F34CE5EDA3B","initial_scale":1,"is_rich_text":false,"italic_degree":0,"ktv_color":"","layer_weight":1,"letter_spacing":0,"line_spacing":0.16999999999999998,"recognize_type":0,"shadow_alpha":0,"shadow_angle":-45,"shadow_color":"#000000","shadow_distance":8,"shadow_point":{"x":1.0182337649086284,"y":-1.0182337649086284},"shadow_smoothing":0.99,"shape_clip_x":false,"shape_clip_y":false,"style_name":"黄字黑边","sub_type":0,"text_alpha":1,"text_color":"#ffde00","text_size":30,"text_to_audio_ids":[],"type":"text","typesetting":0,"underline":false,"underline_offset":0.22,"underline_width":0.05,"use_effect_default_color":false},{"add_type":0,"alignment":0,"background_alpha":1,"background_color":"","background_height":1,"background_horizontal_offset":0,"background_round_radius":0,"background_vertical_offset":0,"background_width":1,"bold_width":0,"border_color":"#000000","border_width":0.08,"check_flag":15,"content":"<outline color=(0,0,0,1) width=0.08><size=13><color=(1,0.87059,0,1)><font id=\"6740435892441190919\" path=\"D:/software/Tools/JianyingPro/3.4.0.9107/Resources/Font/新青年体.ttf\">[\n THE SHY\n 单人签字\n]</font></color></size></outline>","font_category_id":"","font_category_name":"","font_id":"","font_name":"","font_path":"D:/software/Tools/JianyingPro/3.4.0.9107/Resources/Font/新青年体.ttf","font_resource_id":"6740435892441190919","font_size":13,"font_title":"none","font_url":"","fonts":[{"category_id":"","category_name":"","effect_id":"6740435892441190919","id":"55E5EB2D-DBA8-4b95-B222-D21F10235F66","path":"D:/software/Tools/JianyingPro/3.4.0.9107/Resources/Font/新青年体.ttf","resource_id":"6740435892441190919","title":"新青年体"}],"global_alpha":1,"has_shadow":false,"id":"5B6AC805-9555-40a6-986E-BEC20697C089","initial_scale":1,"is_rich_text":false,"italic_degree":0,"ktv_color":"","layer_weight":1,"letter_spacing":0,"line_spacing":0.16999999999999998,"recognize_type":0,"shadow_alpha":0,"shadow_angle":-45,"shadow_color":"#000000","shadow_distance":8,"shadow_point":{"x":1.0182337649086284,"y":-1.0182337649086284},"shadow_smoothing":0.99,"shape_clip_x":false,"shape_clip_y":false,"style_name":"黄字黑边","sub_type":0,"text_alpha":1,"text_color":"#ffde00","text_size":30,"text_to_audio_ids":[],"type":"text","typesetting":0,"underline":false,"underline_offset":0.22,"underline_width":0.05,"use_effect_default_color":false},{"add_type":0,"alignment":0,"background_alpha":1,"background_color":"","background_height":1,"background_horizontal_offset":0,"background_round_radius":0,"background_vertical_offset":0,"background_width":1,"bold_width":0,"border_color":"#000000","border_width":0.08,"check_flag":15,"content":"<outline color=(0,0,0,1) width=0.08><size=13><color=(1,0.87059,0,1)><font id=\"6740435892441190919\" path=\"D:/software/Tools/JianyingPro/3.4.0.9107/Resources/Font/新青年体.ttf\">[\n DOINB\n 奏接特卡\n 1/1编\n]</font></color></size></outline>","font_category_id":"","font_category_name":"","font_id":"","font_name":"","font_path":"D:/software/Tools/JianyingPro/3.4.0.9107/Resources/Font/新青年体.ttf","font_resource_id":"6740435892441190919","font_size":13,"font_title":"none","font_url":"","fonts":[{"category_id":"","category_name":"","effect_id":"6740435892441190919","id":"DD8F1A63-153E-4a39-9403-4A7A824E9DC9","path":"D:/software/Tools/JianyingPro/3.4.0.9107/Resources/Font/新青年体.ttf","resource_id":"6740435892441190919","title":"新青年体"}],"global_alpha":1,"has_shadow":false,"id":"FD56AB4C-5AFB-4784-AD87-B58094FCBF08","initial_scale":1,"is_rich_text":false,"italic_degree":0,"ktv_color":"","layer_weight":1,"letter_spacing":0,"line_spacing":0.16999999999999998,"recognize_type":0,"shadow_alpha":0,"shadow_angle":-45,"shadow_color":"#000000","shadow_distance":8,"shadow_point":{"x":1.0182337649086284,"y":-1.0182337649086284},"shadow_smoothing":0.99,"shape_clip_x":false,"shape_clip_y":false,"style_name":"黄字黑边","sub_type":0,"text_alpha":1,"text_color":"#ffde00","text_size":30,"text_to_audio_ids":[],"type":"text","typesetting":0,"underline":false,"underline_offset":0.22,"underline_width":0.05,"use_effect_default_color":false},{"add_type":0,"alignment":0,"background_alpha":1,"background_color":"","background_height":1,"background_horizontal_offset":0,"background_round_radius":0,"background_vertical_offset":0,"background_width":1,"bold_width":0,"border_color":"#000000","border_width":0.08,"check_flag":15,"content":"<outline color=(0,0,0,1) width=0.08><size=13><color=(1,0.87059,0,1)><font id=\"6740435892441190919\" path=\"D:/software/Tools/JianyingPro/3.4.0.9107/Resources/Font/新青年体.ttf\">[\n ELK\n 现场卡\n 1/1编\n]</font></color></size></outline>","font_category_id":"","font_category_name":"","font_id":"","font_name":"","font_path":"D:/software/Tools/JianyingPro/3.4.0.9107/Resources/Font/新青年体.ttf","font_resource_id":"6740435892441190919","font_size":13,"font_title":"none","font_url":"","fonts":[{"category_id":"","category_name":"","effect_id":"6740435892441190919","id":"C50C4A4C-F2D8-401e-BD39-59F669AD8553","path":"D:/software/Tools/JianyingPro/3.4.0.9107/Resources/Font/新青年体.ttf","resource_id":"6740435892441190919","title":"新青年体"}],"global_alpha":1,"has_shadow":false,"id":"D1A678B5-3E01-4d76-AC97-BDC3023E8262","initial_scale":1,"is_rich_text":false,"italic_degree":0,"ktv_color":"","layer_weight":1,"letter_spacing":0,"line_spacing":0.16999999999999998,"recognize_type":0,"shadow_alpha":0,"shadow_angle":-45,"shadow_color":"#000000","shadow_distance":8,"shadow_point":{"x":1.0182337649086284,"y":-1.0182337649086284},"shadow_smoothing":0.99,"shape_clip_x":false,"shape_clip_y":false,"style_name":"黄字黑边","sub_type":0,"text_alpha":1,"text_color":"#ffde00","text_size":30,"text_to_audio_ids":[],"type":"text","typesetting":0,"underline":false,"underline_offset":0.22,"underline_width":0.05,"use_effect_default_color":false},{"add_type":0,"alignment":0,"background_alpha":1,"background_color":"","background_height":1,"background_horizontal_offset":0,"background_round_radius":0,"background_vertical_offset":0,"background_width":1,"bold_width":0,"border_color":"#000000","border_width":0.08,"check_flag":15,"content":"<outline color=(0,0,0,1) width=0.08><size=13><color=(1,0.87059,0,1)><font id=\"6740435892441190919\" path=\"D:/software/Tools/JianyingPro/3.4.0.9107/Resources/Font/新青年体.ttf\">[\n CRISP\n 现场卡\n 1/1编\n]</font></color></size></outline>","font_category_id":"","font_category_name":"","font_id":"","font_name":"","font_path":"D:/software/Tools/JianyingPro/3.4.0.9107/Resources/Font/新青年体.ttf","font_resource_id":"6740435892441190919","font_size":13,"font_title":"none","font_url":"","fonts":[{"category_id":"","category_name":"","effect_id":"6740435892441190919","id":"D96D3B5B-3070-4a18-A2F8-EA5276F64C85","path":"D:/software/Tools/JianyingPro/3.4.0.9107/Resources/Font/新青年体.ttf","resource_id":"6740435892441190919","title":"新青年体"}],"global_alpha":1,"has_shadow":false,"id":"DA5DBF69-AF05-46f8-B362-A883A62DC101","initial_scale":1,"is_rich_text":false,"italic_degree":0,"ktv_color":"","layer_weight":1,"letter_spacing":0,"line_spacing":0.16999999999999998,"recognize_type":0,"shadow_alpha":0,"shadow_angle":-45,"shadow_color":"#000000","shadow_distance":8,"shadow_point":{"x":1.0182337649086284,"y":-1.0182337649086284},"shadow_smoothing":0.99,"shape_clip_x":false,"shape_clip_y":false,"style_name":"黄字黑边","sub_type":0,"text_alpha":1,"text_color":"#ffde00","text_size":30,"text_to_audio_ids":[],"type":"text","typesetting":0,"underline":false,"underline_offset":0.22,"underline_width":0.05,"use_effect_default_color":false},{"add_type":0,"alignment":0,"background_alpha":1,"background_color":"","background_height":1,"background_horizontal_offset":0,"background_round_radius":0,"background_vertical_offset":0,"background_width":1,"bold_width":0,"border_color":"#000000","border_width":0.08,"check_flag":15,"content":"<outline color=(0,0,0,1) width=0.08><size=13><color=(1,0.87059,0,1)><font id=\"6740435892441190919\" path=\"D:/software/Tools/JianyingPro/3.4.0.9107/Resources/Font/新青年体.ttf\">[\n SCOUT\n 单人卡\n 蓝碎冰\n]</font></color></size></outline>","font_category_id":"","font_category_name":"","font_id":"","font_name":"","font_path":"D:/software/Tools/JianyingPro/3.4.0.9107/Resources/Font/新青年体.ttf","font_resource_id":"6740435892441190919","font_size":13,"font_title":"none","font_url":"","fonts":[{"category_id":"","category_name":"","effect_id":"6740435892441190919","id":"79E8BE7E-5F76-4785-8EF4-EF09352C8198","path":"D:/software/Tools/JianyingPro/3.4.0.9107/Resources/Font/新青年体.ttf","resource_id":"6740435892441190919","title":"新青年体"}],"global_alpha":1,"has_shadow":false,"id":"CFDFF45C-C6FC-43b5-98D4-05B71DA3AC02","initial_scale":1,"is_rich_text":false,"italic_degree":0,"ktv_color":"","layer_weight":1,"letter_spacing":0,"line_spacing":0.16999999999999998,"recognize_type":0,"shadow_alpha":0,"shadow_angle":-45,"shadow_color":"#000000","shadow_distance":8,"shadow_point":{"x":1.0182337649086284,"y":-1.0182337649086284},"shadow_smoothing":0.99,"shape_clip_x":false,"shape_clip_y":false,"style_name":"黄字黑边","sub_type":0,"text_alpha":1,"text_color":"#ffde00","text_size":30,"text_to_audio_ids":[],"type":"text","typesetting":0,"underline":false,"underline_offset":0.22,"underline_width":0.05,"use_effect_default_color":false}],"transitions":[],"video_effects":[],"video_trackings":[{"config":{"center_x":0,"center_y":0,"height":0,"rotation":0,"width":0},"enable_scale":false,"enable_video_tracking":true,"id":"2DAD9F34-4FE2-41f6-BD71-E1500891BEA4","map_path":"","result_path":"","tracker_type":0,"trackers":[],"tracking_time_range":0,"type":"video_tracking","version":""},{"config":{"center_x":0,"center_y":0,"height":0,"rotation":0,"width":0},"enable_scale":false,"enable_video_tracking":true,"id":"337D0619-5DC4-4c1a-B40D-3005BE5BB63C","map_path":"","result_path":"","tracker_type":0,"trackers":[],"tracking_time_range":0,"type":"video_tracking","version":""},{"config":{"center_x":0,"center_y":0,"height":0,"rotation":0,"width":0},"enable_scale":false,"enable_video_tracking":true,"id":"2216FF5F-BC68-42ac-A4E0-8D7D4F5E358D","map_path":"","result_path":"","tracker_type":0,"trackers":[],"tracking_time_range":0,"type":"video_tracking","version":""},{"config":{"center_x":0,"center_y":0,"height":0,"rotation":0,"width":0},"enable_scale":false,"enable_video_tracking":true,"id":"3DB1D6B7-0E28-4b4c-B79E-09748B69BAB9","map_path":"","result_path":"","tracker_type":0,"trackers":[],"tracking_time_range":0,"type":"video_tracking","version":""},{"config":{"center_x":0,"center_y":0,"height":0,"rotation":0,"width":0},"enable_scale":false,"enable_video_tracking":true,"id":"7DDDEBD6-CEDC-4e6d-90A9-E129C8FC9220","map_path":"","result_path":"","tracker_type":0,"trackers":[],"tracking_time_range":0,"type":"video_tracking","version":""},{"config":{"center_x":0,"center_y":0,"height":0,"rotation":0,"width":0},"enable_scale":false,"enable_video_tracking":true,"id":"906AF196-A4E2-478b-83B0-E925ADEAD006","map_path":"","result_path":"","tracker_type":0,"trackers":[],"tracking_time_range":0,"type":"video_tracking","version":""},{"config":{"center_x":0,"center_y":0,"height":0,"rotation":0,"width":0},"enable_scale":false,"enable_video_tracking":true,"id":"5CAC4558-54F3-4bfc-B422-37C711956F49","map_path":"","result_path":"","tracker_type":0,"trackers":[],"tracking_time_range":0,"type":"video_tracking","version":""},{"config":{"center_x":0,"center_y":0,"height":0,"rotation":0,"width":0},"enable_scale":false,"enable_video_tracking":true,"id":"DECB26D4-9432-432c-A02B-5065B2FDDB30","map_path":"","result_path":"","tracker_type":0,"trackers":[],"tracking_time_range":0,"type":"video_tracking","version":""},{"config":{"center_x":0,"center_y":0,"height":0,"rotation":0,"width":0},"enable_scale":false,"enable_video_tracking":true,"id":"83630FA6-D72F-4a14-A8CC-B03BD33BE9E2","map_path":"","result_path":"","tracker_type":0,"trackers":[],"tracking_time_range":0,"type":"video_tracking","version":""},{"config":{"center_x":0,"center_y":0,"height":0,"rotation":0,"width":0},"enable_scale":false,"enable_video_tracking":true,"id":"A6FA7988-9D25-4c3e-BA08-3796A354357C","map_path":"","result_path":"","tracker_type":0,"trackers":[],"tracking_time_range":0,"type":"video_tracking","version":""},{"config":{"center_x":0,"center_y":0,"height":0,"rotation":0,"width":0},"enable_scale":false,"enable_video_tracking":true,"id":"6015159B-8346-4204-916E-A734563ACE05","map_path":"","result_path":"","tracker_type":0,"trackers":[],"tracking_time_range":0,"type":"video_tracking","version":""},{"config":{"center_x":0,"center_y":0,"height":0,"rotation":0,"width":0},"enable_scale":false,"enable_video_tracking":true,"id":"2CFE9CBE-DA8C-480d-9263-832C5342C241","map_path":"","result_path":"","tracker_type":0,"trackers":[],"tracking_time_range":0,"type":"video_tracking","version":""}],"videos":[{"audio_fade":null,"cartoon_path":"","category_id":"","category_name":"local","check_flag":-1,"crop":{"lower_left_x":0,"lower_left_y":1,"lower_right_x":1,"lower_right_y":1,"upper_left_x":0,"upper_left_y":0,"upper_right_x":1,"upper_right_y":0},"crop_ratio":"free","crop_scale":1,"duration":76500000,"extra_type_option":0,"formula_id":"","gameplay":null,"has_audio":true,"height":1080,"id":"171FAF2C-AF64-41d9-8F65-F7F1E627BA28","intensifies_audio_path":"","intensifies_path":"","is_unified_beauty_mode":false,"material_id":"","material_name":"0912.mp4","material_url":"","matting":{"flag":0,"interactiveTime":[],"path":""},"path":"H:/Working/成品/0912.mp4","reverse_intensifies_path":"","reverse_path":"","source_platform":0,"stable":null,"type":"video","video_algorithm":{"algorithms":[],"path":"","time_range":null},"width":1920},{"audio_fade":null,"cartoon_path":"","category_id":"","category_name":"local","check_flag":-1,"crop":{"lower_left_x":0,"lower_left_y":1,"lower_right_x":1,"lower_right_y":1,"upper_left_x":0,"upper_left_y":0,"upper_right_x":1,"upper_right_y":0},"crop_ratio":"free","crop_scale":1,"duration":76500000,"extra_type_option":0,"formula_id":"","gameplay":null,"has_audio":true,"height":1080,"id":"02B9E601-8608-42f9-BE20-41DBCB826C11","intensifies_audio_path":"","intensifies_path":"","is_unified_beauty_mode":false,"material_id":"","material_name":"0912.mp4","material_url":"","matting":{"flag":0,"interactiveTime":[],"path":""},"path":"H:/Working/成品/0912.mp4","reverse_intensifies_path":"","reverse_path":"","source_platform":0,"stable":null,"type":"video","video_algorithm":{"algorithms":[],"path":"","time_range":null},"width":1920},{"audio_fade":{"fade_in_duration":0,"fade_out_duration":1066666,"fade_type":0,"id":"11AD4A63-7624-46e3-B219-84860E4EB521","type":"audio_fade"},"cartoon_path":"","category_id":"","category_name":"local","check_flag":-1,"crop":{"lower_left_x":0,"lower_left_y":1,"lower_right_x":1,"lower_right_y":1,"upper_left_x":0,"upper_left_y":0,"upper_right_x":1,"upper_right_y":0},"crop_ratio":"free","crop_scale":1,"duration":76500000,"extra_type_option":0,"formula_id":"","gameplay":null,"has_audio":true,"height":1080,"id":"5FC971FC-7F55-45b8-819F-9961839BF84C","intensifies_audio_path":"","intensifies_path":"","is_unified_beauty_mode":false,"material_id":"","material_name":"0912.mp4","material_url":"","matting":{"flag":0,"interactiveTime":[],"path":""},"path":"H:/Working/成品/0912.mp4","reverse_intensifies_path":"","reverse_path":"","source_platform":0,"stable":null,"type":"video","video_algorithm":{"algorithms":[],"path":"","time_range":null},"width":1920},{"audio_fade":null,"cartoon_path":"","category_id":"","category_name":"","check_flag":-1,"crop":{"lower_left_x":0,"lower_left_y":1,"lower_right_x":1,"lower_right_y":1,"upper_left_x":0,"upper_left_y":0,"upper_right_x":1,"upper_right_y":0},"crop_ratio":"free","crop_scale":1,"duration":10800000000,"extra_type_option":0,"formula_id":"","gameplay":null,"has_audio":false,"height":738,"id":"37E77C2A-B024-4de4-89EA-30A86F73C53F","intensifies_audio_path":"","intensifies_path":"","is_unified_beauty_mode":false,"material_id":"","material_name":"031.jpg","material_url":"","matting":{"flag":0,"interactiveTime":[],"path":""},"path":"H:/Working/png/911/031.jpg","reverse_intensifies_path":"","reverse_path":"","source_platform":0,"stable":null,"type":"photo","video_algorithm":{"algorithms":[],"path":"","time_range":null},"width":476},{"audio_fade":null,"cartoon_path":"","category_id":"","category_name":"","check_flag":-1,"crop":{"lower_left_x":0,"lower_left_y":1,"lower_right_x":1,"lower_right_y":1,"upper_left_x":0,"upper_left_y":0,"upper_right_x":1,"upper_right_y":0},"crop_ratio":"free","crop_scale":1,"duration":10800000000,"extra_type_option":0,"formula_id":"","gameplay":null,"has_audio":false,"height":600,"id":"7AA00E76-C624-4c14-AA2C-4BF151D83855","intensifies_audio_path":"","intensifies_path":"","is_unified_beauty_mode":false,"material_id":"","material_name":"316.jpg","material_url":"","matting":{"flag":0,"interactiveTime":[],"path":""},"path":"H:/Working/png/911/316.jpg","reverse_intensifies_path":"","reverse_path":"","source_platform":0,"stable":null,"type":"photo","video_algorithm":{"algorithms":[],"path":"","time_range":null},"width":396},{"audio_fade":null,"cartoon_path":"","category_id":"","category_name":"","check_flag":-1,"crop":{"lower_left_x":0,"lower_left_y":1,"lower_right_x":1,"lower_right_y":1,"upper_left_x":0,"upper_left_y":0,"upper_right_x":1,"upper_right_y":0},"crop_ratio":"free","crop_scale":1,"duration":10800000000,"extra_type_option":0,"formula_id":"","gameplay":null,"has_audio":false,"height":530,"id":"CDB4BF6D-F748-4869-874D-10DBEF40F7F5","intensifies_audio_path":"","intensifies_path":"","is_unified_beauty_mode":false,"material_id":"","material_name":"430.jpg","material_url":"","matting":{"flag":0,"interactiveTime":[],"path":""},"path":"H:/Working/png/911/430.jpg","reverse_intensifies_path":"","reverse_path":"","source_platform":0,"stable":null,"type":"photo","video_algorithm":{"algorithms":[],"path":"","time_range":null},"width":798},{"audio_fade":null,"cartoon_path":"","category_id":"","category_name":"","check_flag":-1,"crop":{"lower_left_x":0,"lower_left_y":1,"lower_right_x":1,"lower_right_y":1,"upper_left_x":0,"upper_left_y":0,"upper_right_x":1,"upper_right_y":0},"crop_ratio":"free","crop_scale":1,"duration":10800000000,"extra_type_option":0,"formula_id":"","gameplay":null,"has_audio":false,"height":514,"id":"7D6EEBAD-04A7-424f-94DE-B81FB5D40A90","intensifies_audio_path":"","intensifies_path":"","is_unified_beauty_mode":false,"material_id":"","material_name":"436.jpg","material_url":"","matting":{"flag":0,"interactiveTime":[],"path":""},"path":"H:/Working/png/911/436.jpg","reverse_intensifies_path":"","reverse_path":"","source_platform":0,"stable":null,"type":"photo","video_algorithm":{"algorithms":[],"path":"","time_range":null},"width":746},{"audio_fade":null,"cartoon_path":"","category_id":"","category_name":"","check_flag":-1,"crop":{"lower_left_x":0,"lower_left_y":1,"lower_right_x":1,"lower_right_y":1,"upper_left_x":0,"upper_left_y":0,"upper_right_x":1,"upper_right_y":0},"crop_ratio":"free","crop_scale":1,"duration":10800000000,"extra_type_option":0,"formula_id":"","gameplay":null,"has_audio":false,"height":502,"id":"713D1B91-BFCC-42db-9DA5-3FB8D25E6012","intensifies_audio_path":"","intensifies_path":"","is_unified_beauty_mode":false,"material_id":"","material_name":"502.jpg","material_url":"","matting":{"flag":0,"interactiveTime":[],"path":""},"path":"H:/Working/png/911/502.jpg","reverse_intensifies_path":"","reverse_path":"","source_platform":0,"stable":null,"type":"photo","video_algorithm":{"algorithms":[],"path":"","time_range":null},"width":722},{"audio_fade":null,"cartoon_path":"","category_id":"","category_name":"","check_flag":-1,"crop":{"lower_left_x":0,"lower_left_y":1,"lower_right_x":1,"lower_right_y":1,"upper_left_x":0,"upper_left_y":0,"upper_right_x":1,"upper_right_y":0},"crop_ratio":"free","crop_scale":1,"duration":10800000000,"extra_type_option":0,"formula_id":"","gameplay":null,"has_audio":false,"height":728,"id":"4BE35474-C0E9-4ef1-B392-248A864CB998","intensifies_audio_path":"","intensifies_path":"","is_unified_beauty_mode":false,"material_id":"","material_name":"556.jpg","material_url":"","matting":{"flag":0,"interactiveTime":[],"path":""},"path":"H:/Working/png/911/556.jpg","reverse_intensifies_path":"","reverse_path":"","source_platform":0,"stable":null,"type":"photo","video_algorithm":{"algorithms":[],"path":"","time_range":null},"width":500},{"audio_fade":null,"cartoon_path":"","category_id":"","category_name":"","check_flag":-1,"crop":{"lower_left_x":0,"lower_left_y":1,"lower_right_x":1,"lower_right_y":1,"upper_left_x":0,"upper_left_y":0,"upper_right_x":1,"upper_right_y":0},"crop_ratio":"free","crop_scale":1,"duration":10800000000,"extra_type_option":0,"formula_id":"","gameplay":null,"has_audio":false,"height":588,"id":"E91BCC9F-45EF-40f3-8AC0-759565E1EB38","intensifies_audio_path":"","intensifies_path":"","is_unified_beauty_mode":false,"material_id":"","material_name":"626.jpg","material_url":"","matting":{"flag":0,"interactiveTime":[],"path":""},"path":"H:/Working/png/911/626.jpg","reverse_intensifies_path":"","reverse_path":"","source_platform":0,"stable":null,"type":"photo","video_algorithm":{"algorithms":[],"path":"","time_range":null},"width":390},{"audio_fade":null,"cartoon_path":"","category_id":"","category_name":"","check_flag":-1,"crop":{"lower_left_x":0,"lower_left_y":1,"lower_right_x":1,"lower_right_y":1,"upper_left_x":0,"upper_left_y":0,"upper_right_x":1,"upper_right_y":0},"crop_ratio":"free","crop_scale":1,"duration":10800000000,"extra_type_option":0,"formula_id":"","gameplay":null,"has_audio":false,"height":914,"id":"485BA2D2-E6E0-4a8f-8E7F-A5F132BDAF2E","intensifies_audio_path":"","intensifies_path":"","is_unified_beauty_mode":false,"material_id":"","material_name":"632.jpg","material_url":"","matting":{"flag":0,"interactiveTime":[],"path":""},"path":"H:/Working/png/911/632.jpg","reverse_intensifies_path":"","reverse_path":"","source_platform":0,"stable":null,"type":"photo","video_algorithm":{"algorithms":[],"path":"","time_range":null},"width":648},{"audio_fade":null,"cartoon_path":"","category_id":"","category_name":"","check_flag":-1,"crop":{"lower_left_x":0,"lower_left_y":1,"lower_right_x":1,"lower_right_y":1,"upper_left_x":0,"upper_left_y":0,"upper_right_x":1,"upper_right_y":0},"crop_ratio":"free","crop_scale":1,"duration":10800000000,"extra_type_option":0,"formula_id":"","gameplay":null,"has_audio":false,"height":768,"id":"C55A5D73-1813-4bec-9C8B-ECB39545C8C0","intensifies_audio_path":"","intensifies_path":"","is_unified_beauty_mode":false,"material_id":"","material_name":"656.jpg","material_url":"","matting":{"flag":0,"interactiveTime":[],"path":""},"path":"H:/Working/png/911/656.jpg","reverse_intensifies_path":"","reverse_path":"","source_platform":0,"stable":null,"type":"photo","video_algorithm":{"algorithms":[],"path":"","time_range":null},"width":542}]},"mutable_config":null,"name":"","new_version":"57.0.0","platform":{"app_id":3704,"app_version":"3.4.0","os":"windows","os_version":"10.0.18363"},"relationships":[],"render_index_track_mode_on":false,"retouch_cover":null,"source":"default","static_cover_image_path":"","tracks":[{"attribute":0,"flag":0,"id":"E42539CF-D3BA-4705-A8A0-E4104F06B256","segments":[{"cartoon":false,"clip":{"alpha":1,"flip":{"horizontal":false,"vertical":false},"rotation":0,"scale":{"x":3.1593933766635716,"y":3.1593933766635716},"transform":{"x":0,"y":0}},"enable_adjust":true,"enable_color_curves":true,"enable_color_wheels":true,"enable_lut":true,"extra_material_refs":["5AD89AD5-D78D-4fc9-AE73-A816DA4E0B3E","8F49325D-914D-4dff-A860-CC09CA242696","59F689F1-664A-47e2-9346-FD467960E3EB","2DAD9F34-4FE2-41f6-BD71-E1500891BEA4"],"group_id":"","hdr_settings":{"intensity":1,"mode":1,"nits":1000},"id":"BF022E58-E5D7-4326-8FC5-85AB8A755AEF","intensifies_audio":false,"is_tone_modify":false,"keyframe_refs":[],"last_nonzero_volume":1,"material_id":"171FAF2C-AF64-41d9-8F65-F7F1E627BA28","render_index":0,"reverse":false,"source_timerange":{"duration":16466666,"start":0},"speed":1,"target_timerange":{"duration":16466666,"start":0},"track_attribute":0,"track_render_index":0,"visible":true,"volume":1},{"cartoon":false,"clip":{"alpha":1,"flip":{"horizontal":false,"vertical":false},"rotation":0,"scale":{"x":3.11,"y":3.11},"transform":{"x":0,"y":0.1614420062695925}},"enable_adjust":true,"enable_color_curves":true,"enable_color_wheels":true,"enable_lut":true,"extra_material_refs":["CF08F603-DDE8-435b-BB46-C0E838088AAB","193AB712-006A-46fb-A99F-43236DA0D64F","B8B59CBC-C199-4be2-A803-09FAC09529B2","337D0619-5DC4-4c1a-B40D-3005BE5BB63C"],"group_id":"","hdr_settings":{"intensity":1,"mode":1,"nits":1000},"id":"FDCABDEB-8014-4899-9AAA-A63678CB7109","intensifies_audio":false,"is_tone_modify":false,"keyframe_refs":[],"last_nonzero_volume":1,"material_id":"02B9E601-8608-42f9-BE20-41DBCB826C11","render_index":0,"reverse":false,"source_timerange":{"duration":2633334,"start":16466666},"speed":1,"target_timerange":{"duration":2633334,"start":16466666},"track_attribute":0,"track_render_index":0,"visible":true,"volume":1},{"cartoon":false,"clip":{"alpha":1,"flip":{"horizontal":false,"vertical":false},"rotation":0,"scale":{"x":3.1593933766635716,"y":3.1593933766635716},"transform":{"x":-0.03342618384401119,"y":0}},"enable_adjust":true,"enable_color_curves":true,"enable_color_wheels":true,"enable_lut":true,"extra_material_refs":["323314A5-ED31-4f60-995B-3FE5BDE14C54","11AD4A63-7624-46e3-B219-84860E4EB521","461D5B9F-8D54-44c8-ACD8-732CBAF677FF","ACACD66B-7C85-48d2-9317-D66557B4BCC3","4E39D704-54FD-41c2-B2DB-716570DD1AFF","2216FF5F-BC68-42ac-A4E0-8D7D4F5E358D"],"group_id":"","hdr_settings":{"intensity":1,"mode":1,"nits":1000},"id":"F098C40B-F73A-4ceb-AA99-59CB988DB8C9","intensifies_audio":false,"is_tone_modify":false,"keyframe_refs":[],"last_nonzero_volume":1,"material_id":"5FC971FC-7F55-45b8-819F-9961839BF84C","render_index":0,"reverse":false,"source_timerange":{"duration":57400000,"start":19100000},"speed":1,"target_timerange":{"duration":57400000,"start":19100000},"track_attribute":0,"track_render_index":0,"visible":true,"volume":1}],"type":"video"},{"attribute":0,"flag":2,"id":"18D46C61-3977-432b-8C1A-C3D2CE940D23","segments":[{"cartoon":false,"clip":{"alpha":1,"flip":{"horizontal":false,"vertical":false},"rotation":0,"scale":{"x":0.3385323826500297,"y":0.3385323826500297},"transform":{"x":-0.403899721448468,"y":0.1739811912225705}},"enable_adjust":true,"enable_color_curves":true,"enable_color_wheels":true,"enable_lut":true,"extra_material_refs":["16DEEA85-4CC9-49c6-AE70-97B3A127027F","6D4AC154-0827-41e8-AF53-CA665661534E","177457E9-3463-40d9-AE60-B76D83C3F563","3DB1D6B7-0E28-4b4c-B79E-09748B69BAB9"],"group_id":"","hdr_settings":{"intensity":1,"mode":1,"nits":1000},"id":"3C416DFF-5D51-4ea6-AFA7-318CC89D5905","intensifies_audio":false,"is_tone_modify":false,"keyframe_refs":[],"last_nonzero_volume":1,"material_id":"37E77C2A-B024-4de4-89EA-30A86F73C53F","render_index":1,"reverse":false,"source_timerange":{"duration":3400000,"start":0},"speed":1,"target_timerange":{"duration":3400000,"start":5300000},"track_attribute":0,"track_render_index":0,"visible":true,"volume":1},{"cartoon":false,"clip":{"alpha":1,"flip":{"horizontal":false,"vertical":false},"rotation":0,"scale":{"x":0.35030590792053484,"y":0.35030590792053484},"transform":{"x":-0.3008356545961003,"y":0.1849529780564263}},"enable_adjust":true,"enable_color_curves":true,"enable_color_wheels":true,"enable_lut":true,"extra_material_refs":["A7BE3C3C-EAA2-410a-9CDC-63DF0DEE1F6A","7F75671A-4579-4183-B1CC-299E89CFF5C7","6F7942BD-FAB1-45c7-B4E8-1A4F5C2B2772","7DDDEBD6-CEDC-4e6d-90A9-E129C8FC9220"],"group_id":"","hdr_settings":{"intensity":1,"mode":1,"nits":1000},"id":"6F98D12B-0407-456b-A749-15633C633B26","intensifies_audio":false,"is_tone_modify":false,"keyframe_refs":[],"last_nonzero_volume":1,"material_id":"7AA00E76-C624-4c14-AA2C-4BF151D83855","render_index":2,"reverse":false,"source_timerange":{"duration":3100000,"start":0},"speed":1,"target_timerange":{"duration":3100000,"start":13933333},"track_attribute":0,"track_render_index":0,"visible":true,"volume":1},{"cartoon":false,"clip":{"alpha":1,"flip":{"horizontal":false,"vertical":false},"rotation":0,"scale":{"x":0.5346241045490203,"y":0.5346241045490203},"transform":{"x":-0.2562674094707521,"y":0.2946708463949843}},"enable_adjust":true,"enable_color_curves":true,"enable_color_wheels":true,"enable_lut":true,"extra_material_refs":["C8E5769D-7623-41df-AFBB-AA4D8E6BBDA8","3B9F726D-6303-435b-902D-4914E4D5A1B4","E5700591-1E62-40ef-82E0-3E413C6904B1","906AF196-A4E2-478b-83B0-E925ADEAD006"],"group_id":"","hdr_settings":{"intensity":1,"mode":1,"nits":1000},"id":"6959444C-089A-4d76-B1BF-1A973C4EDD80","intensifies_audio":false,"is_tone_modify":false,"keyframe_refs":[],"last_nonzero_volume":1,"material_id":"CDB4BF6D-F748-4869-874D-10DBEF40F7F5","render_index":3,"reverse":false,"source_timerange":{"duration":2500000,"start":0},"speed":1,"target_timerange":{"duration":2500000,"start":23066666},"track_attribute":0,"track_render_index":0,"visible":true,"volume":1},{"cartoon":false,"clip":{"alpha":1,"flip":{"horizontal":false,"vertical":false},"rotation":0,"scale":{"x":0.4868809046981172,"y":0.4868809046981172},"transform":{"x":-0.350974930362117,"y":0.19905956112852663}},"enable_adjust":true,"enable_color_curves":true,"enable_color_wheels":true,"enable_lut":true,"extra_material_refs":["10473639-5234-4bba-A5CC-DB883311BD73","1AA233C2-FB1E-47b6-8B3B-5F11EEE321D2","974B0BCF-FDB8-4fe0-9F63-5292B678073F","5CAC4558-54F3-4bfc-B422-37C711956F49"],"group_id":"","hdr_settings":{"intensity":1,"mode":1,"nits":1000},"id":"B6C9D45B-2AD5-4167-A39A-48A85459BA22","intensifies_audio":false,"is_tone_modify":false,"keyframe_refs":[],"last_nonzero_volume":1,"material_id":"7D6EEBAD-04A7-424f-94DE-B81FB5D40A90","render_index":4,"reverse":false,"source_timerange":{"duration":2166667,"start":0},"speed":1,"target_timerange":{"duration":2166667,"start":28066666},"track_attribute":0,"track_render_index":0,"visible":true,"volume":1},{"cartoon":false,"clip":{"alpha":1,"flip":{"horizontal":false,"vertical":false},"rotation":0,"scale":{"x":0.4694767122636943,"y":0.4694767122636943},"transform":{"x":-0.350974930362117,"y":0.1849529780564263}},"enable_adjust":true,"enable_color_curves":true,"enable_color_wheels":true,"enable_lut":true,"extra_material_refs":["B7296D94-5D47-446e-B94A-C5386DAB618C","D6E81451-1485-45cd-9F2E-5F552AB1A26F","64A314DF-DA49-4bbf-9FB8-718954FDCAF0","DECB26D4-9432-432c-A02B-5065B2FDDB30"],"group_id":"","hdr_settings":{"intensity":1,"mode":1,"nits":1000},"id":"94F2D27F-8C0B-4247-ADBE-D7A163C8BEBB","intensifies_audio":false,"is_tone_modify":false,"keyframe_refs":[],"last_nonzero_volume":1,"material_id":"713D1B91-BFCC-42db-9DA5-3FB8D25E6012","render_index":5,"reverse":false,"source_timerange":{"duration":3200000,"start":0},"speed":1,"target_timerange":{"duration":3200000,"start":38100000},"track_attribute":0,"track_render_index":0,"visible":true,"volume":1},{"cartoon":false,"clip":{"alpha":1,"flip":{"horizontal":false,"vertical":false},"rotation":0,"scale":{"x":0.34562089599547674,"y":0.34562089599547674},"transform":{"x":-0.4066852367688022,"y":0.17868338557993735}},"enable_adjust":true,"enable_color_curves":true,"enable_color_wheels":true,"enable_lut":true,"extra_material_refs":["739A7A76-9A63-4737-B8A8-618F282E708B","88A21890-325A-464f-AB31-69D858B55047","BAD1D2D6-F050-4c09-9D21-3ED989B35861","83630FA6-D72F-4a14-A8CC-B03BD33BE9E2"],"group_id":"","hdr_settings":{"intensity":1,"mode":1,"nits":1000},"id":"B8E2E427-41CE-4e6f-BE75-42D41757ADA5","intensifies_audio":false,"is_tone_modify":false,"keyframe_refs":[],"last_nonzero_volume":1,"material_id":"4BE35474-C0E9-4ef1-B392-248A864CB998","render_index":6,"reverse":false,"source_timerange":{"duration":2833333,"start":0},"speed":1,"target_timerange":{"duration":2833333,"start":47600000},"track_attribute":0,"track_render_index":0,"visible":true,"volume":1},{"cartoon":false,"clip":{"alpha":1,"flip":{"horizontal":false,"vertical":false},"rotation":0,"scale":{"x":0.3631325982471021,"y":0.3631325982471021},"transform":{"x":-0.3844011142061281,"y":0.1943573667711599}},"enable_adjust":true,"enable_color_curves":true,"enable_color_wheels":true,"enable_lut":true,"extra_material_refs":["59384766-D4EE-47c1-B56E-628F8AA6B379","9CA5A86D-D65F-4887-A639-018AC9870747","7EA1CB20-F655-4da4-B983-C977281CA055","A6FA7988-9D25-4c3e-BA08-3796A354357C"],"group_id":"","hdr_settings":{"intensity":1,"mode":1,"nits":1000},"id":"2D017031-39F8-4e90-9FB7-D48906489091","intensifies_audio":false,"is_tone_modify":false,"keyframe_refs":[],"last_nonzero_volume":1,"material_id":"E91BCC9F-45EF-40f3-8AC0-759565E1EB38","render_index":7,"reverse":false,"source_timerange":{"duration":2833333,"start":0},"speed":1,"target_timerange":{"duration":2833333,"start":53433333},"track_attribute":0,"track_render_index":0,"visible":true,"volume":1},{"cartoon":false,"clip":{"alpha":1,"flip":{"horizontal":false,"vertical":false},"rotation":0,"scale":{"x":0.40370816805102017,"y":0.40370816805102017},"transform":{"x":-0.362116991643454,"y":0.19905956112852663}},"enable_adjust":true,"enable_color_curves":true,"enable_color_wheels":true,"enable_lut":true,"extra_material_refs":["85408179-009F-498f-8529-778490CA5BEF","E4423D4B-40CF-4a20-8AA7-A6291E856686","081407DD-164E-47e1-A6C3-4F00AAABF8CC","6015159B-8346-4204-916E-A734563ACE05"],"group_id":"","hdr_settings":{"intensity":1,"mode":1,"nits":1000},"id":"9A873C70-FAA8-41af-AF4B-4DC60522CA9F","intensifies_audio":false,"is_tone_modify":false,"keyframe_refs":[],"last_nonzero_volume":1,"material_id":"485BA2D2-E6E0-4a8f-8E7F-A5F132BDAF2E","render_index":8,"reverse":false,"source_timerange":{"duration":2833333,"start":0},"speed":1,"target_timerange":{"duration":2833333,"start":60000000},"track_attribute":0,"track_render_index":0,"visible":true,"volume":1},{"cartoon":false,"clip":{"alpha":1,"flip":{"horizontal":false,"vertical":false},"rotation":0,"scale":{"x":0.4578991671096935,"y":0.4578991671096935},"transform":{"x":-0.36768802228412256,"y":0.21159874608150475}},"enable_adjust":true,"enable_color_curves":true,"enable_color_wheels":true,"enable_lut":true,"extra_material_refs":["A0EA0823-DD07-4ebd-AEF4-D58D004EEFE8","87E686B6-19B3-4d69-AC23-73B4E7985D8C","F31E44ED-392C-4a08-966C-E34EB2F8178C","2CFE9CBE-DA8C-480d-9263-832C5342C241"],"group_id":"","hdr_settings":{"intensity":1,"mode":1,"nits":1000},"id":"6A9907DD-3E24-402b-9E4D-EADF714C5052","intensifies_audio":false,"is_tone_modify":false,"keyframe_refs":[],"last_nonzero_volume":1,"material_id":"C55A5D73-1813-4bec-9C8B-ECB39545C8C0","render_index":9,"reverse":false,"source_timerange":{"duration":2833333,"start":0},"speed":1,"target_timerange":{"duration":2833334,"start":72966666},"track_attribute":0,"track_render_index":0,"visible":true,"volume":1}],"type":"video"},{"attribute":0,"flag":0,"id":"1CE43DEB-B771-4965-AF7D-CA08E78F314A","segments":[{"cartoon":false,"clip":{"alpha":1,"flip":{"horizontal":false,"vertical":false},"rotation":0,"scale":{"x":0.8205260967802511,"y":0.8205260967802511},"transform":{"x":0.35654596100278546,"y":0.3730407523510971}},"enable_adjust":false,"enable_color_curves":true,"enable_color_wheels":true,"enable_lut":false,"extra_material_refs":["8D148C0B-381D-4762-9857-F224013B8029"],"group_id":"","hdr_settings":null,"id":"815DEE04-8BE9-43fa-8150-B3BF68000093","intensifies_audio":false,"is_tone_modify":false,"keyframe_refs":[],"last_nonzero_volume":1,"material_id":"FF86BCC2-6443-438c-BD99-245602707A5A","render_index":14050,"reverse":false,"source_timerange":null,"speed":1,"target_timerange":{"duration":3400000,"start":5300000},"track_attribute":0,"track_render_index":0,"visible":true,"volume":1},{"cartoon":false,"clip":{"alpha":1,"flip":{"horizontal":false,"vertical":false},"rotation":0,"scale":{"x":0.8205260967802511,"y":0.8205260967802511},"transform":{"x":0.4568245125348189,"y":0.3495297805642633}},"enable_adjust":false,"enable_color_curves":true,"enable_color_wheels":true,"enable_lut":false,"extra_material_refs":["2569AD3F-985F-47b3-9A86-BFDE14988260"],"group_id":"","hdr_settings":null,"id":"713DD11D-B4E6-472c-922B-14BBB2E6CE09","intensifies_audio":false,"is_tone_modify":false,"keyframe_refs":[],"last_nonzero_volume":1,"material_id":"4DA12513-84A9-472c-9C05-465EA67D11AA","render_index":14056,"reverse":false,"source_timerange":null,"speed":1,"target_timerange":{"duration":3100000,"start":13933333},"track_attribute":0,"track_render_index":0,"visible":true,"volume":1},{"cartoon":false,"clip":{"alpha":1,"flip":{"horizontal":false,"vertical":false},"rotation":0,"scale":{"x":0.8205260967802511,"y":0.8205260967802511},"transform":{"x":-0.3593314763231198,"y":-0.07523510971786829}},"enable_adjust":false,"enable_color_curves":true,"enable_color_wheels":true,"enable_lut":false,"extra_material_refs":["0BA39B58-8D14-4259-8DC6-AC26A4FD4AFB"],"group_id":"","hdr_settings":null,"id":"313F2052-1ED4-4280-BF8B-AE720E576D7E","intensifies_audio":false,"is_tone_modify":false,"keyframe_refs":[],"last_nonzero_volume":1,"material_id":"320310E8-B127-437f-983B-681D77238FFF","render_index":14043,"reverse":false,"source_timerange":null,"speed":1,"target_timerange":{"duration":2500000,"start":23066666},"track_attribute":0,"track_render_index":0,"visible":true,"volume":1},{"cartoon":false,"clip":{"alpha":1,"flip":{"horizontal":false,"vertical":false},"rotation":0,"scale":{"x":0.8205260967802511,"y":0.8205260967802511},"transform":{"x":0.47910863509749313,"y":0.29623824451410663}},"enable_adjust":false,"enable_color_curves":true,"enable_color_wheels":true,"enable_lut":false,"extra_material_refs":["18A47315-DB61-434a-93D4-0BA8899BDCFB"],"group_id":"","hdr_settings":null,"id":"ECBD71A6-3B77-428a-8A37-053E07B5BACC","intensifies_audio":false,"is_tone_modify":false,"keyframe_refs":[],"last_nonzero_volume":1,"material_id":"2FF11208-1D52-43c3-AE93-0F34CE5EDA3B","render_index":14051,"reverse":false,"source_timerange":null,"speed":1,"target_timerange":{"duration":2166667,"start":28066666},"track_attribute":0,"track_render_index":0,"visible":true,"volume":1},{"cartoon":false,"clip":{"alpha":1,"flip":{"horizontal":false,"vertical":false},"rotation":0,"scale":{"x":0.8205260967802511,"y":0.8205260967802511},"transform":{"x":0.4874651810584958,"y":0.2821316614420063}},"enable_adjust":false,"enable_color_curves":true,"enable_color_wheels":true,"enable_lut":false,"extra_material_refs":["827DF116-7123-43f9-8686-07D98B9477F1"],"group_id":"","hdr_settings":null,"id":"7FC2941D-DB5C-42df-8217-ADB52F12F12F","intensifies_audio":false,"is_tone_modify":false,"keyframe_refs":[],"last_nonzero_volume":1,"material_id":"5B6AC805-9555-40a6-986E-BEC20697C089","render_index":14045,"reverse":false,"source_timerange":null,"speed":1,"target_timerange":{"duration":3200000,"start":38100000},"track_attribute":0,"track_render_index":0,"visible":true,"volume":1},{"cartoon":false,"clip":{"alpha":1,"flip":{"horizontal":false,"vertical":false},"rotation":0,"scale":{"x":0.8205260967802511,"y":0.8205260967802511},"transform":{"x":0.36768802228412256,"y":0.35266457680250785}},"enable_adjust":false,"enable_color_curves":true,"enable_color_wheels":true,"enable_lut":false,"extra_material_refs":["934ECA33-42EB-4d7b-ADC5-AEB3E3897503"],"group_id":"","hdr_settings":null,"id":"A4CDC55F-9AAE-4b51-ADEC-9DDCBB50D58B","intensifies_audio":false,"is_tone_modify":false,"keyframe_refs":[],"last_nonzero_volume":1,"material_id":"FD56AB4C-5AFB-4784-AD87-B58094FCBF08","render_index":14053,"reverse":false,"source_timerange":null,"speed":1,"target_timerange":{"duration":2833333,"start":47600000},"track_attribute":0,"track_render_index":0,"visible":true,"volume":1},{"cartoon":false,"clip":{"alpha":1,"flip":{"horizontal":false,"vertical":false},"rotation":0,"scale":{"x":0.8205260967802511,"y":0.8205260967802511},"transform":{"x":0.36768802228412256,"y":0.35266457680250785}},"enable_adjust":false,"enable_color_curves":true,"enable_color_wheels":true,"enable_lut":false,"extra_material_refs":["4D3CEBA3-8462-428d-B33A-5BDA4A0DEDE7"],"group_id":"","hdr_settings":null,"id":"C05F317B-C0D4-4f62-B9FB-DACCB4C80EBF","intensifies_audio":false,"is_tone_modify":false,"keyframe_refs":[],"last_nonzero_volume":1,"material_id":"D1A678B5-3E01-4d76-AC97-BDC3023E8262","render_index":14047,"reverse":false,"source_timerange":null,"speed":1,"target_timerange":{"duration":2833333,"start":53433333},"track_attribute":0,"track_render_index":0,"visible":true,"volume":1},{"cartoon":false,"clip":{"alpha":1,"flip":{"horizontal":false,"vertical":false},"rotation":0,"scale":{"x":0.8205260967802511,"y":0.8205260967802511},"transform":{"x":0.36768802228412256,"y":0.35266457680250785}},"enable_adjust":false,"enable_color_curves":true,"enable_color_wheels":true,"enable_lut":false,"extra_material_refs":["574A6F2E-EA41-4586-BFDA-BB8B5A53271C"],"group_id":"","hdr_settings":null,"id":"6A0E8ADD-4952-4dec-A706-0F5F824D67BA","intensifies_audio":false,"is_tone_modify":false,"keyframe_refs":[],"last_nonzero_volume":1,"material_id":"DA5DBF69-AF05-46f8-B362-A883A62DC101","render_index":14048,"reverse":false,"source_timerange":null,"speed":1,"target_timerange":{"duration":2833333,"start":60000000},"track_attribute":0,"track_render_index":0,"visible":true,"volume":1},{"cartoon":false,"clip":{"alpha":1,"flip":{"horizontal":false,"vertical":false},"rotation":0,"scale":{"x":0.8205260967802511,"y":0.8205260967802511},"transform":{"x":0.36768802228412256,"y":0.35266457680250785}},"enable_adjust":false,"enable_color_curves":true,"enable_color_wheels":true,"enable_lut":false,"extra_material_refs":["2328FC27-E95C-4f75-ACD7-26F439C3E806"],"group_id":"","hdr_settings":null,"id":"BCB9EC62-F7CB-4043-A028-B7AC0DB47425","intensifies_audio":false,"is_tone_modify":false,"keyframe_refs":[],"last_nonzero_volume":1,"material_id":"CFDFF45C-C6FC-43b5-98D4-05B71DA3AC02","render_index":14055,"reverse":false,"source_timerange":null,"speed":1,"target_timerange":{"duration":2833334,"start":72966666},"track_attribute":0,"track_render_index":0,"visible":true,"volume":1}],"type":"text"}],"update_time":0,"version":360000}